<svg width="176" height="79" viewBox="0 0 176 79" fill="none" xmlns="http://www.w3.org/2000/svg">
<path d="M8.53736 73.7782C6.08041 73.7782 4.12602 73.1062 2.67418 71.7622C1.22235 70.3995 0.496429 68.4582 0.496429 65.9382V61.2342C0.496429 58.7142 1.22235 56.7822 2.67418 55.4382C4.12602 54.0755 6.08041 53.3942 8.53736 53.3942C10.9943 53.3942 12.9487 54.0755 14.4005 55.4382C15.8524 56.7822 16.5783 58.7142 16.5783 61.2342V65.9382C16.5783 68.4582 15.8524 70.3995 14.4005 71.7622C12.9487 73.1062 10.9943 73.7782 8.53736 73.7782ZM8.53736 70.4742C9.91474 70.4742 10.985 70.0729 11.7481 69.2702C12.5113 68.4675 12.8929 67.3942 12.8929 66.0502V61.1222C12.8929 59.7782 12.5113 58.7049 11.7481 57.9022C10.985 57.0995 9.91474 56.6982 8.53736 56.6982C7.17859 56.6982 6.10833 57.0995 5.32657 57.9022C4.56343 58.7049 4.18186 59.7782 4.18186 61.1222V66.0502C4.18186 67.3942 4.56343 68.4675 5.32657 69.2702C6.10833 70.0729 7.17859 70.4742 8.53736 70.4742Z" fill="#464648"/>
<path d="M19.3642 78.9862V59.4982H22.8262V61.1782H23.3288C23.6452 60.6369 24.1385 60.1609 24.8085 59.7502C25.4786 59.3209 26.4372 59.1062 27.6843 59.1062C28.8011 59.1062 29.8341 59.3862 30.7834 59.9462C31.7327 60.4875 32.4958 61.2902 33.0728 62.3542C33.6498 63.4182 33.9384 64.7062 33.9384 66.2182V66.6662C33.9384 68.1782 33.6498 69.4662 33.0728 70.5302C32.4958 71.5942 31.7327 72.4062 30.7834 72.9662C29.8341 73.5075 28.8011 73.7782 27.6843 73.7782C26.8467 73.7782 26.1394 73.6755 25.5624 73.4702C25.004 73.2835 24.548 73.0409 24.1943 72.7422C23.8593 72.4249 23.5894 72.1075 23.3846 71.7902H22.8821V78.9862H19.3642ZM26.6233 70.6982C27.7215 70.6982 28.6243 70.3529 29.3316 69.6622C30.0575 68.9529 30.4204 67.9262 30.4204 66.5822V66.3022C30.4204 64.9582 30.0575 63.9409 29.3316 63.2502C28.6057 62.5409 27.7029 62.1862 26.6233 62.1862C25.5438 62.1862 24.641 62.5409 23.9151 63.2502C23.1892 63.9409 22.8262 64.9582 22.8262 66.3022V66.5822C22.8262 67.9262 23.1892 68.9529 23.9151 69.6622C24.641 70.3529 25.5438 70.6982 26.6233 70.6982Z" fill="#464648"/>
<path d="M42.92 73.7782C41.5427 73.7782 40.3235 73.4889 39.2625 72.9102C38.2202 72.3129 37.4012 71.4822 36.8056 70.4182C36.2286 69.3355 35.9401 68.0662 35.9401 66.6102V66.2742C35.9401 64.8182 36.2286 63.5582 36.8056 62.4942C37.3826 61.4115 38.1923 60.5809 39.2346 60.0022C40.277 59.4049 41.4868 59.1062 42.8642 59.1062C44.223 59.1062 45.4049 59.4142 46.41 60.0302C47.4152 60.6275 48.1969 61.4675 48.7553 62.5502C49.3137 63.6142 49.5929 64.8555 49.5929 66.2742V67.4782H39.5138C39.5511 68.4302 39.9047 69.2049 40.5748 69.8022C41.2449 70.3995 42.0638 70.6982 43.0317 70.6982C44.0182 70.6982 44.7441 70.4835 45.2095 70.0542C45.6748 69.6249 46.0285 69.1489 46.2704 68.6262L49.1462 70.1382C48.8856 70.6235 48.504 71.1555 48.0015 71.7342C47.5175 72.2942 46.8661 72.7795 46.0471 73.1902C45.2281 73.5822 44.1857 73.7782 42.92 73.7782ZM39.5417 64.8462H46.0192C45.9447 64.0435 45.619 63.3995 45.042 62.9142C44.4836 62.4289 43.7483 62.1862 42.8363 62.1862C41.887 62.1862 41.1332 62.4289 40.5748 62.9142C40.0164 63.3995 39.672 64.0435 39.5417 64.8462Z" fill="#464648"/>
<path d="M52.1657 73.3862V59.4982H55.6277V61.3182H56.1303C56.3537 60.8329 56.7725 60.3755 57.3867 59.9462C58.0009 59.4982 58.9316 59.2742 60.1787 59.2742C61.2583 59.2742 62.1982 59.5262 62.9986 60.0302C63.8176 60.5155 64.4504 61.1969 64.8971 62.0742C65.3439 62.9329 65.5672 63.9409 65.5672 65.0982V73.3862H62.0493V65.3782C62.0493 64.3329 61.7887 63.5489 61.2676 63.0262C60.765 62.5035 60.0391 62.2422 59.0898 62.2422C58.0102 62.2422 57.1726 62.6062 56.577 63.3342C55.9814 64.0435 55.6836 65.0422 55.6836 66.3302V73.3862H52.1657Z" fill="#464648"/>
<path d="M70.2637 73.3862L67.695 53.7862H71.3525L73.2511 70.8102H73.7536L76.2106 53.7862H82.5763L85.0333 70.8102H85.5358L87.4344 53.7862H91.0919L88.5233 73.3862H82.1575L79.6447 55.9702H79.1422L76.6294 73.3862H70.2637Z" fill="#464648"/>
<path d="M99.484 73.7782C98.1066 73.7782 96.8875 73.4889 95.8265 72.9102C94.7842 72.3129 93.9652 71.4822 93.3695 70.4182C92.7925 69.3355 92.504 68.0662 92.504 66.6102V66.2742C92.504 64.8182 92.7925 63.5582 93.3695 62.4942C93.9466 61.4115 94.7562 60.5809 95.7986 60.0022C96.8409 59.4049 98.0508 59.1062 99.4282 59.1062C100.787 59.1062 101.969 59.4142 102.974 60.0302C103.979 60.6275 104.761 61.4675 105.319 62.5502C105.878 63.6142 106.157 64.8555 106.157 66.2742V67.4782H96.0778C96.115 68.4302 96.4686 69.2049 97.1387 69.8022C97.8088 70.3995 98.6278 70.6982 99.5957 70.6982C100.582 70.6982 101.308 70.4835 101.773 70.0542C102.239 69.6249 102.592 69.1489 102.834 68.6262L105.71 70.1382C105.45 70.6235 105.068 71.1555 104.565 71.7342C104.081 72.2942 103.43 72.7795 102.611 73.1902C101.792 73.5822 100.75 73.7782 99.484 73.7782ZM96.1057 64.8462H102.583C102.509 64.0435 102.183 63.3995 101.606 62.9142C101.048 62.4289 100.312 62.1862 99.4002 62.1862C98.451 62.1862 97.6971 62.4289 97.1387 62.9142C96.5803 63.3995 96.236 64.0435 96.1057 64.8462Z" fill="#464648"/>
<path d="M128.608 73.3862C127.696 73.3862 126.952 73.1062 126.375 72.5462C125.816 71.9675 125.537 71.2022 125.537 70.2502V62.4102H122.075V59.4982H125.537V55.1862H129.055V59.4982H132.852V62.4102H129.055V69.6342C129.055 70.1942 129.316 70.4742 129.837 70.4742H132.517V73.3862H128.608Z" fill="#464648"/>
<path d="M135.478 73.3862V53.7862H138.996V61.2062H139.499C139.648 60.9075 139.88 60.6089 140.197 60.3102C140.513 60.0115 140.932 59.7689 141.453 59.5822C141.993 59.3769 142.672 59.2742 143.491 59.2742C144.571 59.2742 145.511 59.5262 146.311 60.0302C147.13 60.5155 147.763 61.1969 148.21 62.0742C148.656 62.9329 148.88 63.9409 148.88 65.0982V73.3862H145.362V65.3782C145.362 64.3329 145.101 63.5489 144.58 63.0262C144.078 62.5035 143.352 62.2422 142.402 62.2422C141.323 62.2422 140.485 62.6062 139.89 63.3342C139.294 64.0435 138.996 65.0422 138.996 66.3302V73.3862H135.478Z" fill="#464648"/>
<path d="M158.434 73.7782C157.057 73.7782 155.838 73.4889 154.777 72.9102C153.734 72.3129 152.915 71.4822 152.32 70.4182C151.743 69.3355 151.454 68.0662 151.454 66.6102V66.2742C151.454 64.8182 151.743 63.5582 152.32 62.4942C152.897 61.4115 153.706 60.5809 154.749 60.0022C155.791 59.4049 157.001 59.1062 158.378 59.1062C159.737 59.1062 160.919 59.4142 161.924 60.0302C162.929 60.6275 163.711 61.4675 164.27 62.5502C164.828 63.6142 165.107 64.8555 165.107 66.2742V67.4782H155.028C155.065 68.4302 155.419 69.2049 156.089 69.8022C156.759 70.3995 157.578 70.6982 158.546 70.6982C159.532 70.6982 160.258 70.4835 160.724 70.0542C161.189 69.6249 161.543 69.1489 161.785 68.6262L164.66 70.1382C164.4 70.6235 164.018 71.1555 163.516 71.7342C163.032 72.2942 162.38 72.7795 161.561 73.1902C160.742 73.5822 159.7 73.7782 158.434 73.7782ZM155.056 64.8462H161.533C161.459 64.0435 161.133 63.3995 160.556 62.9142C159.998 62.4289 159.263 62.1862 158.35 62.1862C157.401 62.1862 156.647 62.4289 156.089 62.9142C155.531 63.3995 155.186 64.0435 155.056 64.8462Z" fill="#464648"/>
<path d="M167.68 73.3862V59.4982H171.142V61.0662H171.645C171.849 60.5062 172.184 60.0955 172.65 59.8342C173.134 59.5729 173.692 59.4422 174.325 59.4422H176V62.5782H174.269C173.376 62.5782 172.64 62.8209 172.063 63.3062C171.486 63.7729 171.198 64.5009 171.198 65.4902V73.3862H167.68Z" fill="#464648"/>
<g clip-path="url(#clip0_307_37)">
<path d="M64.7337 31.0703C64.0627 31.0428 63.3862 31.0703 62.7097 31.0703C59.9597 31.0703 59.9597 31.0703 60.0202 28.2763C60.1377 25.0451 59.5558 21.8266 58.3141 18.8412C57.0725 15.8557 55.2005 13.1737 52.8262 10.9788V10.9513L52.3312 10.5113C49.8582 8.3421 46.9397 6.74138 43.7812 5.82188C40.6227 4.90238 37.301 4.68645 34.0501 5.1893C30.7992 5.69215 27.698 6.90154 24.9649 8.73234C22.2318 10.5631 19.9333 12.9708 18.2312 15.7858L18.1927 15.8463C18.0772 16.0443 17.9562 16.2423 17.8462 16.4403C15.6558 20.314 14.6697 24.7526 15.0137 29.1893C15.0577 29.9263 15.5637 31.0153 14.0677 31.1198C12.7752 31.2078 11.8072 31.8513 12.0327 33.3198C12.2582 34.7883 13.3857 34.9698 14.6452 34.9698C16.5977 34.9313 18.5557 34.9698 20.5082 34.9698C21.7622 34.9698 22.6642 35.4758 22.7082 36.8013C22.7467 38.0003 21.9822 38.6658 20.7997 38.6823C19.3312 38.6823 18.3742 39.3588 18.4897 40.8383C18.6052 42.3178 19.8152 42.4883 21.0637 42.4553C24.5672 42.4278 28.0707 42.4223 31.5797 42.4553C32.8722 42.4553 33.8292 43.0053 33.7522 44.5068C33.6807 45.8763 32.7952 46.3108 31.5522 46.3053C29.3962 46.3053 27.2402 46.3053 25.0787 46.3053C23.7092 46.3053 22.3672 46.3768 22.3617 48.1753C22.3562 49.9738 23.7147 50.0343 25.0787 50.0288C32.3607 50.0288 39.6427 50.0288 46.9192 50.0288C50.0872 50.0288 53.2552 50.0288 56.4232 50.0288C57.7102 50.0288 58.7772 49.7923 58.8157 48.2578C58.8597 46.6078 57.7157 46.2778 56.3737 46.3108C55.8237 46.3108 55.2737 46.3108 54.7567 46.3108H45.0492C43.7787 46.3108 42.9372 45.7608 42.8987 44.4408C42.8602 43.1208 43.7347 42.5488 44.9667 42.4608C45.3682 42.4278 45.7752 42.4608 46.1767 42.4608C47.4087 42.4608 48.5582 42.3233 48.6572 40.7668C48.7672 39.1168 47.6672 38.7263 46.3032 38.7208C45.0602 38.6548 44.3397 37.9288 44.3397 36.8288C44.3397 35.5803 45.1592 34.9038 46.4737 34.9423C47.2822 34.9423 48.0962 34.9423 48.9047 34.9423C54.1627 34.9423 59.4207 34.9423 64.6787 34.9423C66.0042 34.9423 66.9557 34.5243 66.9997 33.0448C67.0437 31.5653 65.9987 31.1253 64.7337 31.0703Z" fill="#EB6D4A"/>
<circle cx="63.9501" cy="40.562" r="1.85432" fill="#EB6D4A"/>
<circle cx="68.6259" cy="40.562" r="1.85432" fill="#EB6D4A"/>
<rect x="63.7603" y="38.7077" width="4.98122" height="3.70865" fill="#EB6D4A"/>
<circle cx="53.0244" cy="40.562" r="1.85432" fill="#EB6D4A"/>
<circle cx="57.7002" cy="40.562" r="1.85432" fill="#EB6D4A"/>
<rect x="52.8346" y="38.7077" width="4.98122" height="3.70865" fill="#EB6D4A"/>
</g>
<path d="M113.629 73.7334C112.643 73.7334 111.759 73.5654 110.977 73.2294C110.195 72.8747 109.571 72.3707 109.106 71.7174C108.659 71.0454 108.436 70.2334 108.436 69.2814C108.436 68.3294 108.659 67.5361 109.106 66.9014C109.571 66.2481 110.204 65.7627 111.005 65.4454C111.824 65.1094 112.754 64.9414 113.797 64.9414H117.594V64.1574C117.594 63.5041 117.389 62.9721 116.98 62.5614C116.57 62.1321 115.919 61.9174 115.025 61.9174C114.15 61.9174 113.499 62.1227 113.071 62.5334C112.643 62.9254 112.363 63.4387 112.233 64.0734L108.994 62.9814C109.218 62.2721 109.571 61.6281 110.055 61.0494C110.558 60.4521 111.219 59.9761 112.038 59.6214C112.875 59.2481 113.89 59.0614 115.081 59.0614C116.905 59.0614 118.348 59.5187 119.409 60.4334C120.47 61.3481 121 62.6734 121 64.4094V69.5894C121 70.1494 121 70.2054 121 70.6534V71.7174V73.3414H120.553C119.865 73.3414 118.73 73.3134 118.18 73.3134C118.18 72.8374 118.18 72.0534 118.18 71.4934V71.4654H117.65C117.575 71.6894 117.408 71.9881 117.147 72.3614C116.886 72.7161 116.477 73.0334 115.919 73.3134C115.36 73.5934 114.597 73.7334 113.629 73.7334ZM114.243 70.8774C115.23 70.8774 116.03 70.6067 116.644 70.0654C117.277 69.5054 117.594 68.7681 117.594 67.8534V67.5734H114.048C113.396 67.5734 112.885 67.7134 112.512 67.9934C112.14 68.2734 111.954 68.6654 111.954 69.1694C111.954 69.6734 112.149 70.0841 112.54 70.4014C112.931 70.7187 113.499 70.8774 114.243 70.8774Z" fill="#464648"/>
<defs>
<clipPath id="clip0_307_37">
<rect width="58.5037" height="55" fill="white" transform="translate(12 0.924805)"/>
</clipPath>
</defs>
</svg>
